<?xml version="1.0"?>
<svg xmlns="http://www.w3.org/2000/svg" xmlns:xlink="http://www.w3.org/1999/xlink" xmlns:svgjs="http://svgjs.com/svgjs" version="1.1" width="512" height="512" x="0" y="0" viewBox="0 0 64 64" style="enable-background:new 0 0 512 512" xml:space="preserve"><g><path xmlns="http://www.w3.org/2000/svg" d="m29.678 11.706c3.026-3.035 7.048-4.706 11.322-4.706v-2c-4.81 0-9.334 1.88-12.738 5.294z" fill="#ffffff" data-original="#000000" style=""/><path xmlns="http://www.w3.org/2000/svg" d="m42.884 7.11c.627.073 1.26.187 1.882.337l.469-1.944c-.699-.169-1.412-.296-2.118-.379z" fill="#ffffff" data-original="#000000" style=""/><path xmlns="http://www.w3.org/2000/svg" d="m57 23c0 3.439-1.137 6.848-3.2 9.6l-2.85 3.8 1.6 1.2 2.85-3.8c2.322-3.095 3.6-6.931 3.6-10.8z" fill="#ffffff" data-original="#000000" style=""/><path xmlns="http://www.w3.org/2000/svg" d="m48.25 39h2.5v2h-2.5z" transform="matrix(.6 -.8 .8 .6 -12.203 55.588)" fill="#ffffff" data-original="#000000" style=""/><path xmlns="http://www.w3.org/2000/svg" d="m63 23c0-12.131-9.869-22-22-22s-22 9.869-22 22c0 .754.053 1.51.131 2.261-2.954.821-5.131 3.527-5.131 6.739 0 2.293 1.114 4.326 2.823 5.604-6.243 1.814-10.823 7.576-10.823 14.396v1c-2.757 0-5 2.243-5 5s2.243 5 5 5h14 1.768 14.232c.673 0 1.314-.138 1.901-.38 1.014.248 2.053.38 3.099.38 3.491 0 6.773-1.36 9.242-3.828l.758-.757v-12.082l7.6-10.133c2.838-3.783 4.4-8.471 4.4-13.2zm-47 9c0-2.757 2.243-5 5-5s5 2.243 5 5-2.243 5-5 5-5-2.243-5-5zm5 7c7.168 0 13 5.832 13 13v1.232l-9.954 2.654c.587-.626.954-1.462.954-2.386 0-.539-.133-1.044-.351-1.5h3.351c1.654 0 3-1.346 3-3v-1h-2v1c0 .551-.448 1-1 1h-6.5-1.5-6c-.552 0-1-.449-1-1v-1h-2v1c0 1.654 1.346 3 3 3h6 1.5c.827 0 1.5.673 1.5 1.5s-.673 1.5-1.5 1.5h-5.883l-7.617-1.792v-1.208c0-7.168 5.832-13 13-13zm18.344-14h3.312l-.625 20h-2.062zm9.656 22v2h-13.302c-.14-.687-.342-1.35-.573-2zm-13 6v-1c0-.338-.029-.668-.051-1h13.051v2zm-16 8h-14c-1.654 0-3-1.346-3-3s1.346-3 3-3h.536c.23 0 .462.027.687.08l14.827 3.488c.56.132.95.625.95 1.2 0 .679-.553 1.232-1.232 1.232zm4.753 0c.158-.38.247-.796.247-1.232 0-.707-.232-1.363-.623-1.9l10.374-2.766c.252-.068.513-.102.773-.102h.476c1.654 0 3 1.346 3 3s-1.346 3-3 3zm24.075-3.243c-2.091 2.091-4.871 3.243-7.828 3.243-.326 0-.648-.037-.972-.065.604-.827.972-1.835.972-2.935 0-1.13-.391-2.162-1.026-3h9.026v2.585zm.672-12.757h-5.469l.626-20h4.343c3.309 0 6-2.691 6-6s-2.691-6-6-6h-.154c-3.261 0-5.896 2.553-5.997 5.812l-.131 4.188h-3.437l-.13-4.188c-.101-3.259-2.736-5.812-5.997-5.812h-.154c-3.309 0-6 2.691-6 6s2.691 6 6 6h4.344l.625 20h-3.712c-1.883-3.552-5.15-6.254-9.079-7.396 1.708-1.278 2.822-3.311 2.822-5.604 0-3.822-3.08-6.933-6.886-6.994-.068-.667-.114-1.337-.114-2.006 0-11.028 8.972-20 20-20s20 8.972 20 20c0 4.299-1.421 8.561-4 12zm-4.78-22 .129-4.125c.067-2.173 1.823-3.875 3.997-3.875h.154c2.206 0 4 1.794 4 4s-1.794 4-4 4zm-7.439 0h-4.281c-2.206 0-4-1.794-4-4s1.794-4 4-4h.154c2.174 0 3.93 1.702 3.998 3.875z" fill="#ffffff" data-original="#000000" style=""/></g></svg>
